<?xml version="1.0" standalone="no"?>
<!DOCTYPE svg PUBLIC "-//W3C//DTD SVG 20010904//EN"
 "http://www.w3.org/TR/2001/REC-SVG-20010904/DTD/svg10.dtd">
<svg version="1.0" xmlns="http://www.w3.org/2000/svg"
 width="512.000000pt" height="512.000000pt" viewBox="0 0 512.000000 512.000000"
 preserveAspectRatio="xMidYMid meet">
<metadata>
Created by potrace 1.14, written by Peter Selinger 2001-2017
</metadata>
<g transform="translate(0.000000,512.000000) scale(0.100000,-0.100000)"
fill="#000000" stroke="none">
<path d="M245 4898 c-16 -6 -34 -17 -38 -25 -5 -7 -11 -12 -15 -10 -7 3 -52
-40 -62 -59 -3 -5 -8 -8 -12 -7 -4 2 -5 -4 -2 -12 4 -8 1 -15 -4 -15 -6 0 -9
-9 -7 -20 2 -11 -1 -20 -6 -20 -6 0 -7 -5 -2 -12 12 -19 11 -62 -1 -70 -7 -6
-6 -11 4 -18 13 -9 13 -10 0 -10 -13 0 -13 -1 0 -10 13 -9 13 -10 0 -10 -13 0
-13 -1 0 -10 13 -9 13 -10 0 -10 -9 0 -11 -3 -5 -8 13 -9 18 -35 5 -27 -5 3
-10 1 -10 -4 0 -6 5 -11 10 -11 6 0 10 -5 10 -11 0 -5 -5 -7 -12 -3 -7 4 -8 3
-4 -5 13 -21 17 -61 6 -61 -7 0 -8 -5 -3 -12 11 -18 10 -32 -2 -40 -6 -5 -4
-8 5 -8 13 0 13 -1 0 -10 -13 -9 -13 -10 0 -10 13 0 13 -1 0 -10 -13 -9 -13
-10 0 -10 13 0 13 -1 0 -10 -10 -6 -11 -10 -2 -10 6 0 12 -5 12 -11 0 -5 -5
-7 -11 -3 -7 4 -7 -1 1 -16 7 -13 8 -20 2 -16 -6 3 -14 1 -18 -5 -4 -7 -3 -9
4 -5 6 3 14 1 18 -5 3 -6 0 -15 -7 -20 -12 -7 -11 -9 1 -9 13 0 13 -1 0 -10
-9 -6 -11 -13 -5 -17 16 -12 17 -35 3 -45 -10 -6 -10 -10 2 -18 13 -9 13 -10
0 -10 -13 0 -13 -1 0 -10 13 -9 13 -10 0 -10 -13 0 -13 -1 0 -10 13 -9 13 -10
0 -10 -9 0 -11 -3 -5 -8 13 -9 18 -35 5 -27 -5 3 -10 1 -10 -4 0 -6 5 -11 10
-11 6 0 10 -5 10 -11 0 -5 -5 -7 -12 -3 -7 4 -8 3 -4 -5 14 -21 17 -61 5 -61
-8 0 -8 -4 -1 -12 15 -19 15 -30 0 -39 -10 -7 -10 -9 2 -9 13 0 13 -1 0 -10
-13 -9 -13 -10 0 -10 13 0 13 -1 0 -10 -13 -9 -13 -10 0 -10 13 0 13 -1 0 -10
-10 -6 -11 -10 -2 -10 6 0 12 -5 12 -11 0 -5 -5 -7 -11 -3 -7 4 -7 -1 1 -16 7
-13 8 -20 2 -16 -6 3 -14 1 -18 -5 -4 -7 -3 -9 4 -5 6 3 14 1 18 -5 3 -6 0
-15 -7 -20 -12 -7 -11 -9 1 -9 13 0 13 -1 0 -10 -9 -6 -11 -13 -5 -17 16 -12
17 -35 3 -45 -10 -6 -10 -10 2 -18 13 -9 13 -10 0 -10 -13 0 -13 -1 0 -10 13
-9 13 -10 0 -10 -13 0 -13 -1 0 -10 13 -9 13 -10 0 -10 -9 0 -11 -3 -5 -8 6
-4 10 -19 10 -34 -1 -15 3 -24 7 -22 12 7 10 -10 -2 -22 -8 -8 -5 -15 7 -25
16 -13 17 -12 4 4 -7 9 -9 17 -3 17 13 0 20 -19 17 -47 -1 -13 1 -21 3 -18 6
6 31 -26 32 -40 0 -5 -5 -3 -10 5 -6 9 -10 10 -10 3 0 -7 9 -17 20 -23 11 -6
20 -15 20 -21 0 -11 40 -70 55 -81 6 -5 5 -8 -2 -8 -7 0 -13 -4 -13 -9 0 -5 8
-8 17 -7 11 0 18 -6 17 -16 -1 -9 4 -14 11 -12 7 3 25 -10 41 -28 16 -18 31
-33 34 -33 3 0 16 -10 30 -22 13 -13 27 -23 32 -23 4 0 8 -5 8 -11 0 -8 -4 -8
-13 -1 -9 8 -17 8 -27 0 -12 -8 -12 -9 2 -4 10 3 20 1 23 -3 3 -5 13 -7 24 -4
24 6 55 -25 42 -41 -8 -9 -7 -13 4 -13 7 0 13 5 12 10 -4 17 20 18 37 2 9 -9
21 -13 27 -9 8 5 9 3 4 -6 -6 -10 -4 -12 8 -7 10 3 17 3 17 -2 0 -5 6 -9 13
-8 45 1 48 -1 31 -30 -15 -26 -15 -27 0 -8 14 17 18 18 26 5 5 -8 6 -18 3 -24
-3 -5 -1 -6 5 -2 9 5 9 13 1 27 -6 12 -8 23 -5 27 3 3 6 1 6 -5 0 -6 11 -9 25
-8 14 2 23 -1 19 -6 -3 -5 -1 -9 5 -9 5 0 13 5 16 10 5 8 11 7 20 0 8 -7 20
-8 26 -4 7 4 9 3 5 -4 -3 -6 3 -14 15 -17 20 -7 20 -7 2 -22 -10 -8 -13 -12
-6 -9 6 4 14 2 18 -4 3 -5 1 -10 -4 -10 -6 0 -11 -5 -11 -11 0 -5 3 -8 7 -6 5
3 8 -60 8 -139 0 -89 -4 -144 -10 -144 -5 0 -3 -5 5 -10 13 -9 13 -10 0 -10
-12 0 -12 -2 -2 -9 17 -11 17 -21 0 -32 -11 -7 -11 -9 1 -9 11 0 11 -3 0 -17
-8 -9 -9 -14 -3 -10 7 4 11 -7 10 -32 0 -24 -5 -37 -11 -33 -5 3 -4 -2 4 -11
11 -14 11 -20 0 -34 -10 -11 -10 -14 -2 -9 7 4 13 3 13 -3 0 -5 -6 -12 -13
-14 -9 -4 -8 -6 2 -6 11 -1 11 -4 1 -16 -10 -12 -10 -15 1 -15 11 0 11 -2 -1
-10 -11 -7 -11 -10 -2 -10 8 0 10 -5 5 -12 -11 -19 -13 -39 -2 -32 5 3 9 -2 9
-11 0 -10 -5 -13 -12 -9 -7 5 -8 3 -2 -7 11 -18 15 -71 5 -65 -4 3 -8 -1 -8
-9 0 -8 4 -12 9 -9 4 3 8 0 8 -5 0 -6 -6 -11 -12 -11 -10 0 -10 -2 0 -9 14 -9
13 -32 -3 -43 -6 -5 -5 -8 3 -8 6 0 12 -5 12 -11 0 -5 -6 -7 -12 -3 -10 6 -10
4 0 -7 16 -17 16 -32 0 -23 -10 6 -10 5 -2 -7 13 -15 16 -72 4 -64 -3 2 -7 -2
-7 -10 0 -8 4 -12 9 -9 13 8 10 -10 -4 -25 -10 -11 -10 -13 -1 -7 7 4 13 3 13
-3 0 -5 -6 -12 -12 -14 -10 -4 -10 -6 0 -6 6 -1 12 -13 12 -27 0 -14 -4 -23
-8 -20 -5 3 -9 -1 -9 -9 0 -8 4 -12 9 -9 4 3 8 -1 8 -10 0 -8 -6 -17 -12 -19
-10 -4 -10 -6 0 -6 6 -1 12 -6 12 -12 0 -5 -6 -7 -12 -3 -10 6 -10 4 -2 -7 13
-17 18 -93 6 -85 -5 3 -9 -1 -9 -9 0 -8 4 -12 9 -9 16 10 8 -9 -9 -22 -16 -13
-16 -13 -1 -8 14 5 17 -1 16 -35 0 -27 -4 -39 -12 -34 -6 3 -6 0 2 -8 16 -17
16 -53 0 -43 -10 6 -10 4 0 -7 14 -15 16 -33 3 -24 -5 3 -13 1 -16 -5 -4 -6
-1 -9 7 -8 18 4 22 -40 6 -59 -9 -12 -10 -15 -1 -9 20 12 16 -54 -5 -78 -16
-20 -16 -20 1 -7 15 12 17 11 17 -14 0 -15 -8 -34 -18 -41 -16 -13 -16 -14 1
-8 16 6 17 -4 16 -130 0 -74 2 -140 6 -146 3 -5 2 -10 -4 -10 -6 0 -6 -11 -1
-30 5 -16 6 -30 2 -30 -4 0 -6 -36 -4 -81 2 -53 -1 -85 -9 -95 -10 -12 -9 -13
3 -9 12 5 14 -1 10 -27 -2 -18 -9 -38 -14 -45 -6 -7 -4 -14 4 -20 7 -4 13 -23
13 -41 0 -24 -3 -31 -15 -27 -13 4 -13 4 0 -7 9 -8 15 -30 15 -53 0 -23 -6
-45 -15 -53 -13 -11 -13 -11 0 -7 12 4 15 -6 14 -62 -1 -71 9 -112 29 -125 8
-5 7 -8 -5 -8 -22 0 -29 -13 -16 -30 8 -12 9 -12 4 3 -7 21 22 24 30 2 4 -8
10 -12 15 -9 5 3 6 -2 2 -12 -5 -13 -2 -15 15 -9 14 4 22 2 22 -5 0 -6 -4 -9
-9 -5 -5 3 -13 0 -17 -7 -4 -7 -4 -10 0 -6 4 3 22 2 39 -3 18 -6 43 -12 57
-15 13 -3 28 -11 32 -17 6 -9 8 -9 8 1 0 6 9 12 20 12 11 0 20 -6 20 -12 0
-10 3 -9 9 1 5 7 13 11 18 8 5 -3 15 -2 23 3 8 5 22 4 34 -2 20 -11 20 -10 6
7 -8 10 -10 16 -4 12 7 -4 32 13 57 39 26 25 50 44 54 41 12 -7 15 39 16 238
1 111 5 183 12 187 6 5 4 8 -5 8 -13 0 -13 1 0 10 13 9 13 10 0 10 -13 0 -13
1 0 10 13 8 13 10 1 10 -11 0 -9 4 5 15 11 9 13 13 4 10 -13 -4 -16 4 -16 40
0 25 4 45 9 45 5 0 3 8 -4 17 -10 11 -10 14 -1 9 6 -4 12 -3 12 3 0 5 -3 12
-7 14 -5 3 -7 25 -6 49 2 60 2 60 16 52 6 -4 4 1 -5 12 -14 16 -15 23 -6 32 7
7 8 12 2 12 -14 0 -9 87 6 105 11 13 11 16 0 13 -9 -2 -13 7 -13 25 1 15 2 29
3 32 7 15 5 32 -4 44 -9 12 -7 13 8 8 17 -7 17 -6 5 10 -12 15 -12 16 4 10 11
-4 16 -3 12 3 -3 6 -14 10 -23 11 -10 0 -12 3 -5 6 9 3 10 10 3 23 -7 13 -7
21 0 25 7 4 7 12 0 25 -11 21 2 35 23 25 6 -4 4 0 -7 9 -10 8 -15 19 -12 25 4
5 2 12 -3 16 -16 9 -1 34 17 29 14 -5 14 -4 -1 6 -9 6 -15 15 -12 21 4 5 0 9
-7 10 -7 0 -4 4 7 9 11 5 15 9 8 9 -6 1 -10 10 -8 21 2 11 0 22 -6 25 -5 4 -6
13 0 23 6 11 6 24 0 35 -10 16 -1 22 24 18 5 -1 6 3 2 9 -3 6 -10 8 -15 5 -5
-3 -8 4 -7 15 1 11 6 20 12 21 5 0 1 4 -10 9 -11 5 -15 9 -8 9 8 1 9 10 3 31
-5 16 -5 32 -1 34 8 5 7 48 -2 63 -4 5 -3 13 1 17 10 11 10 89 -1 111 -10 18
-9 19 8 5 12 -9 16 -10 11 -2 -14 23 -16 76 -3 84 9 6 9 8 0 8 -7 0 -10 9 -8
22 3 12 -1 26 -8 30 -9 6 -9 8 1 8 7 0 10 5 7 10 -3 6 -2 10 3 10 15 0 23 28
10 36 -6 4 -8 3 -4 -4 3 -6 3 -13 -1 -15 -5 -3 -8 60 -8 139 0 79 3 144 8 144
4 0 7 5 7 11 0 5 -5 7 -10 4 -14 -9 -12 8 3 24 10 11 10 13 0 7 -7 -4 -13 -2
-13 3 0 6 3 11 8 11 4 0 13 10 21 23 14 22 13 22 -7 4 -20 -18 -20 -18 -18 7
0 14 4 26 9 26 4 0 7 5 7 11 0 5 -4 8 -9 5 -10 -7 -6 57 5 75 4 7 3 9 -2 6
-16 -10 -10 57 6 71 8 7 11 12 5 11 -22 -3 -25 2 -14 22 6 12 7 19 1 15 -13
-8 -10 27 3 36 6 5 6 8 -1 8 -14 0 -14 31 0 49 8 11 8 13 -1 7 -7 -4 -13 -2
-13 3 0 6 5 11 10 11 7 0 7 7 -1 21 -8 16 -8 20 1 14 7 -4 10 -1 8 11 -3 19
18 24 100 24 18 0 31 4 28 9 -3 4 2 8 11 8 12 0 11 -5 -7 -19 -12 -10 -18 -18
-13 -18 5 0 20 10 33 23 27 25 39 28 58 14 9 -7 11 -6 6 7 -4 10 -1 16 10 17
9 1 21 3 26 4 6 1 15 3 21 4 5 0 7 6 3 13 -4 7 -3 8 4 4 7 -4 12 -2 12 5 0 7
3 9 7 6 3 -4 12 -2 20 5 7 6 16 9 19 6 3 -3 -11 -15 -31 -26 -19 -12 -35 -27
-35 -34 1 -8 7 -5 15 6 8 11 15 16 15 12 0 -4 7 0 16 9 9 9 22 14 29 11 8 -3
10 4 7 20 -3 19 0 24 17 24 14 0 20 4 15 12 -5 7 -3 8 7 2 23 -14 38 -13 32 3
-5 12 -7 12 -15 1 -8 -10 -9 -10 -5 2 2 8 10 15 18 15 8 1 13 7 11 14 -2 10 5
9 25 -4 28 -18 28 -18 11 2 -17 19 -17 21 11 47 27 26 30 27 40 9 14 -25 14
-7 -1 20 -10 20 -10 21 6 8 14 -12 16 -12 10 3 -4 10 0 18 10 22 9 3 13 11 9
17 -4 6 -1 7 7 2 10 -6 12 -4 7 8 -3 10 -2 17 3 17 6 0 10 7 10 16 0 11 5 14
16 10 15 -6 15 -4 3 11 -9 11 -10 14 -1 9 11 -6 17 5 13 27 0 4 3 7 9 7 5 0
10 -5 10 -12 0 -6 3 -8 6 -5 4 4 2 13 -4 20 -7 8 -8 17 -4 21 4 4 7 13 7 19 0
7 8 11 18 11 13 -1 15 2 8 10 -10 12 -4 56 8 56 4 0 7 18 6 40 -1 38 9 54 17
28 3 -8 7 -6 11 5 4 10 2 16 -6 14 -6 -1 -13 9 -15 22 -3 16 0 21 8 16 9 -6 9
-2 1 13 -13 25 -14 35 -2 27 5 -3 13 0 17 6 4 8 3 9 -4 5 -7 -4 -12 -4 -13 1
0 4 -2 19 -5 32 -4 21 -3 22 13 10 17 -13 17 -13 3 5 -17 21 -18 39 -8 79 4
16 3 25 -3 22 -16 -10 -10 13 9 31 16 17 16 18 0 11 -12 -4 -18 -2 -18 9 0 9
5 12 12 8 7 -5 8 -3 3 6 -12 19 -13 141 -2 164 5 10 5 16 0 13 -5 -3 -8 52 -8
123 0 70 4 126 8 123 5 -3 4 4 -2 15 -15 28 -15 53 0 32 9 -12 9 -11 4 5 -11
32 -13 195 -2 188 6 -4 7 -1 2 8 -13 20 -14 99 -1 99 7 0 8 3 1 8 -6 4 -10 18
-10 32 0 14 -5 31 -12 38 -7 8 -10 19 -6 25 3 7 3 9 -2 5 -4 -4 -18 6 -32 22
-60 71 -169 99 -263 66 -24 -8 -47 -13 -52 -10 -5 3 -7 0 -6 -7 2 -7 -7 -18
-19 -24 -13 -7 -20 -15 -16 -18 3 -4 2 -7 -4 -7 -6 0 -13 -9 -16 -21 -4 -13
-10 -18 -18 -13 -7 4 -10 3 -6 -3 3 -5 0 -22 -8 -37 -10 -18 -10 -24 -2 -19 7
4 7 0 -2 -10 -7 -9 -9 -17 -4 -17 10 0 10 -60 0 -77 -4 -6 -1 -14 5 -16 10 -4
10 -6 1 -6 -7 -1 -10 -8 -7 -16 5 -11 1 -14 -12 -9 -11 3 -8 -1 6 -10 16 -10
19 -15 10 -16 -13 0 -13 -1 0 -10 8 -5 11 -10 5 -10 -6 0 -10 -51 -10 -133 0
-108 -3 -133 -15 -139 -12 -5 -11 -7 4 -7 20 -1 20 -1 0 -17 -10 -8 -13 -13
-6 -9 7 3 12 0 12 -8 0 -12 -19 -15 -100 -15 -55 0 -100 4 -100 9 0 5 -7 9
-15 9 -8 0 -15 5 -15 11 0 5 5 7 12 3 7 -5 8 -3 3 6 -5 8 -9 33 -11 57 -2 39
0 42 15 31 14 -11 14 -11 4 2 -19 25 -34 70 -23 70 6 0 10 -6 10 -14 0 -8 5
-18 11 -21 5 -4 4 9 -4 28 -8 18 -14 55 -12 80 1 29 -2 47 -9 47 -7 0 -7 3 -1
8 12 8 13 37 2 48 -4 4 -2 13 4 21 9 10 8 13 -2 13 -8 0 -5 6 7 15 19 15 19
15 -1 8 -18 -6 -18 -5 -6 10 10 13 10 17 1 17 -10 0 -10 3 -1 14 9 11 9 16 1
21 -7 4 -10 16 -7 26 3 11 1 19 -5 19 -5 0 -6 5 -3 10 7 12 -38 77 -67 98 -10
7 -15 18 -12 24 4 6 3 8 -3 5 -5 -3 -32 1 -59 9 -84 26 -210 3 -237 -43 -5 -7
-13 -10 -19 -7 -7 4 -8 2 -4 -5 4 -6 0 -14 -8 -17 -9 -3 -14 -10 -11 -14 3 -5
-3 -15 -13 -22 -15 -10 -19 -25 -18 -66 1 -40 -3 -52 -14 -53 -10 0 -11 -2 -2
-6 8 -3 12 -28 12 -74 0 -41 -4 -68 -9 -64 -5 3 -13 1 -16 -5 -4 -6 -1 -9 7
-8 18 4 22 -40 6 -59 -8 -11 -8 -14 -1 -10 15 10 15 -55 -1 -65 -7 -5 -6 -8 3
-8 11 0 11 -3 0 -17 -8 -9 -9 -14 -4 -11 12 7 13 -90 2 -109 -4 -6 -1 -13 5
-15 7 -3 -33 -5 -90 -6 -69 -1 -100 3 -96 10 4 6 -3 5 -16 -2 -15 -8 -20 -8
-16 -1 4 6 1 11 -6 11 -9 0 -9 3 2 10 13 8 13 10 0 10 -11 0 -11 3 -2 12 7 7
12 17 12 22 0 6 -4 5 -9 -2 -4 -8 -7 4 -6 30 0 24 5 49 9 57 6 10 5 12 -2 7
-8 -5 -12 1 -12 16 0 18 2 20 10 8 5 -8 10 -10 10 -4 0 5 -5 15 -12 22 -9 9
-9 15 0 24 7 7 12 17 12 22 0 6 -4 5 -9 -2 -6 -10 -10 -9 -14 7 -3 12 -2 21 1
21 4 0 7 27 7 60 0 33 -4 60 -9 60 -6 0 -1 7 10 15 16 13 16 14 2 9 -10 -3
-18 -1 -18 5 0 6 8 11 18 12 14 0 14 2 -3 9 -11 5 -14 9 -7 9 9 1 10 6 3 19
-11 21 -11 30 0 60 5 14 5 21 0 18 -8 -5 -17 7 -20 27 -1 13 -26 35 -33 30 -5
-2 -8 0 -8 6 0 6 -11 21 -25 35 -14 14 -25 23 -25 21 0 -2 -19 2 -41 10 -48
17 -130 18 -174 3z m390 -1178 c-3 -5 -13 -6 -23 -3 -9 3 -14 3 -10 -2 13 -14
87 -13 105 2 17 13 16 13 -3 4 -15 -7 -25 -7 -34 2 -10 9 -11 9 -6 0 4 -7 2
-13 -3 -13 -6 0 -11 6 -11 13 0 8 15 12 44 12 24 0 42 -3 40 -7 -7 -10 18 -22
49 -23 29 -1 36 9 12 19 -8 3 -15 0 -16 -7 0 -8 -2 -7 -6 2 -5 11 -7 11 -14 0
-7 -11 -9 -11 -9 2 0 12 10 16 44 15 40 -1 43 -3 36 -22 -6 -15 -4 -21 5 -21
8 0 12 4 10 8 -15 23 29 42 73 30 1 -1 -2 -11 -8 -23 -11 -22 -10 -22 4 -4 9
11 16 23 16 27 0 4 21 5 48 3 59 -6 57 -6 119 -1 29 3 50 1 47 -4 -3 -5 2 -9
11 -9 9 0 14 4 11 8 -2 4 8 8 24 7 15 0 26 -3 24 -7 -7 -10 18 -23 49 -24 32
-1 32 -1 10 17 -11 10 -14 10 -9 2 4 -7 2 -13 -3 -13 -6 0 -11 6 -11 13 0 8
-4 7 -10 -3 -8 -13 -10 -13 -10 1 0 12 9 16 34 15 19 0 32 -4 30 -7 -6 -10 22
-30 29 -22 4 3 7 11 7 17 0 6 -5 4 -10 -4 -9 -13 -10 -13 -10 1 0 23 164 19
188 -4 13 -14 14 -19 3 -29 -10 -11 -12 -9 -9 7 2 13 -3 20 -12 20 -8 0 -18 5
-22 10 -5 6 -8 3 -8 -7 0 -9 -6 -18 -12 -21 -7 -3 -3 -4 10 -4 12 1 22 5 22 9
0 4 4 8 9 8 5 0 7 -9 4 -20 -3 -11 0 -20 6 -20 18 0 12 -23 -13 -54 -16 -19
-28 -26 -37 -20 -12 6 -12 5 0 -9 12 -15 9 -21 -11 -18 -4 0 -12 -8 -18 -19
-6 -11 -15 -18 -21 -15 -5 4 -9 2 -9 -4 0 -5 -9 -8 -20 -6 -11 2 -18 0 -15 -6
7 -11 -8 -11 -330 -12 -244 -1 -302 4 -289 25 4 7 3 8 -4 4 -25 -15 -116 66
-108 97 2 9 0 14 -5 11 -13 -7 -29 38 -18 52 5 6 3 16 -4 24 -6 7 -7 10 -2 7
6 -3 17 -2 25 3 16 10 33 3 25 -10z"/>
<path d="M934 3718 c-3 -4 -4 -8 -2 -9 25 -6 35 -5 35 5 0 14 -25 17 -33 4z"/>
<path d="M981 3714 c0 -11 3 -14 6 -6 3 7 2 16 -1 19 -3 4 -6 -2 -5 -13z"/>
<path d="M1000 3721 c0 -10 19 -25 25 -20 1 2 -3 10 -11 17 -8 7 -14 8 -14 3z"/>
<path d="M1070 3718 c0 -4 7 -8 15 -8 8 0 15 4 15 8 0 5 -7 9 -15 9 -8 0 -15
-4 -15 -9z"/>
<path d="M1122 3716 c7 -8 15 -12 17 -11 5 6 -10 25 -20 25 -5 0 -4 -6 3 -14z"/>
<path d="M1166 3714 c-11 -7 -18 -16 -15 -18 2 -2 13 2 23 10 11 7 18 16 15
18 -2 2 -13 -2 -23 -10z"/>
<path d="M1340 3723 c0 -4 11 -13 25 -20 14 -6 23 -7 19 -2 -8 13 -44 31 -44
22z"/>
<path d="M1390 3718 c0 -4 7 -8 15 -8 8 0 15 4 15 8 0 5 -7 9 -15 9 -8 0 -15
-4 -15 -9z"/>
<path d="M856 3708 c3 -5 10 -6 15 -3 13 9 11 12 -6 12 -8 0 -12 -4 -9 -9z"/>
<path d="M715 3701 c-3 -5 -2 -12 3 -15 5 -3 9 1 9 9 0 17 -3 19 -12 6z"/>
<path d="M1113 3691 c0 -11 5 -18 9 -15 4 3 5 11 1 19 -7 21 -12 19 -10 -4z"/>
<path d="M1195 3701 c-3 -5 -2 -12 3 -15 5 -3 9 1 9 9 0 17 -3 19 -12 6z"/>
<path d="M787 3679 c7 -7 15 -10 18 -7 3 3 -2 9 -12 12 -14 6 -15 5 -6 -5z"/>
<path d="M2550 4901 c0 -5 -10 -11 -23 -15 -13 -3 -41 -22 -62 -43 -22 -21
-42 -37 -45 -36 -7 2 -8 1 -14 -87 -2 -36 -5 -67 -6 -70 -1 -3 -2 -9 -1 -13 8
-47 7 -66 -3 -58 -8 7 -12 4 -12 -9 0 -10 4 -17 7 -14 4 2 10 0 13 -5 4 -5 1
-13 -5 -17 -8 -4 -7 -9 2 -15 12 -7 12 -9 0 -9 -9 0 -10 -4 -5 -12 16 -22 10
-53 -9 -52 -9 1 -14 -2 -11 -7 3 -5 11 -9 17 -9 7 0 13 -9 13 -19 0 -11 -4
-17 -8 -15 -4 3 -8 0 -8 -6 0 -6 -6 -8 -12 -4 -8 4 -10 3 -5 -2 5 -5 14 -9 20
-9 13 0 17 -53 5 -77 -6 -12 -5 -18 4 -18 10 0 9 -3 -1 -9 -12 -8 -12 -12 -2
-25 8 -9 9 -16 4 -16 -5 0 -9 -9 -10 -20 -1 -13 2 -18 10 -13 9 5 9 3 2 -8 -6
-8 -11 -30 -10 -49 0 -19 -4 -38 -10 -42 -6 -4 -2 -8 9 -8 13 0 16 -3 8 -12
-5 -7 -6 -22 -2 -33 8 -23 2 -47 -11 -39 -5 3 -9 0 -9 -5 0 -6 5 -11 12 -11 6
0 8 -3 5 -7 -4 -3 -2 -12 4 -19 9 -11 7 -15 -6 -20 -13 -5 -14 -9 -4 -15 10
-6 10 -11 -1 -24 -7 -9 -9 -15 -3 -13 9 3 15 -4 12 -14 -5 -23 -5 -66 2 -63 4
3 4 -7 0 -22 -4 -16 -7 -52 -6 -81 1 -29 -2 -55 -7 -58 -5 -3 -5 -11 -1 -17 4
-7 8 -30 8 -52 0 -22 5 -46 9 -54 6 -10 5 -12 -3 -7 -8 5 -10 0 -7 -19 3 -17
0 -28 -10 -32 -12 -5 -13 -7 -3 -14 16 -10 19 -59 5 -78 -7 -10 -7 -13 -1 -9
7 4 10 -16 11 -57 0 -37 -4 -61 -10 -58 -5 4 -6 0 -1 -8 11 -17 13 -79 3 -79
-4 0 -8 -5 -8 -11 0 -5 5 -7 10 -4 14 9 12 -8 -2 -24 -10 -11 -10 -13 0 -7 18
11 15 -5 -5 -21 -16 -13 -16 -14 -2 -10 13 4 16 -1 15 -19 0 -13 -4 -24 -8
-24 -5 0 -8 -5 -8 -11 0 -5 3 -8 8 -6 4 3 7 -10 7 -29 0 -19 -3 -34 -7 -34 -5
0 -8 -5 -8 -11 0 -5 3 -8 8 -6 4 3 7 -44 7 -104 0 -90 -3 -109 -15 -110 -13 0
-13 -1 0 -7 15 -7 23 -92 8 -92 -4 0 -3 -12 2 -26 12 -32 12 -34 -1 -34 -5 0
-7 5 -3 12 5 7 3 8 -5 4 -9 -6 -8 -13 5 -27 11 -12 13 -19 5 -19 -9 0 -9 -5
-1 -20 9 -16 8 -20 -7 -21 -16 0 -16 -1 2 -9 11 -5 14 -9 7 -9 -9 -1 -10 -6
-2 -20 8 -16 6 -20 -8 -24 -15 -4 -14 -5 2 -6 20 -1 20 -1 0 -17 -10 -8 -13
-13 -6 -9 9 5 12 -9 12 -53 0 -50 -3 -60 -19 -65 -11 -2 -24 0 -31 7 -8 8 -10
7 -5 -4 3 -10 -1 -16 -12 -17 -29 -2 -48 -7 -53 -15 -3 -4 -15 -9 -25 -11 -11
-2 -28 -7 -37 -12 -10 -4 -25 -5 -32 -2 -11 4 -13 1 -9 -10 4 -11 2 -14 -5 -9
-7 4 -12 2 -12 -3 0 -6 -7 -11 -16 -11 -9 0 -29 -9 -45 -21 -16 -11 -29 -17
-29 -12 0 4 -5 0 -11 -9 -5 -10 -14 -18 -19 -18 -9 0 -24 -13 -96 -81 -17 -16
-34 -26 -39 -22 -4 5 -5 3 -2 -4 4 -6 1 -17 -6 -25 -23 -24 -73 -102 -95 -151
-13 -26 -27 -45 -32 -42 -5 3 -12 0 -16 -6 -4 -8 -3 -9 4 -5 13 8 17 -16 5
-28 -8 -8 -9 -13 -12 -41 0 -8 -7 -13 -13 -11 -7 1 -10 1 -5 -1 9 -6 9 -33 -1
-33 -7 0 -9 -8 -13 -65 -1 -13 -4 -23 -8 -21 -3 2 -5 -17 -5 -42 1 -26 -3 -53
-10 -61 -8 -12 -8 -13 2 -7 7 4 12 1 12 -8 0 -10 -6 -13 -17 -9 -15 5 -15 3 1
-9 19 -15 19 -15 0 -27 -10 -7 -12 -10 -4 -8 13 4 15 -7 14 -69 0 -41 -4 -77
-7 -81 -4 -3 -7 -11 -7 -17 0 -7 3 -6 8 1 4 7 7 -19 7 -57 -1 -42 3 -70 10
-70 5 0 3 -5 -5 -10 -10 -6 -11 -10 -2 -10 6 0 12 -5 12 -11 0 -5 -4 -8 -8 -5
-5 3 -9 -1 -9 -9 0 -8 4 -12 9 -9 8 5 12 -9 9 -33 -1 -7 2 -13 7 -13 5 0 9 -6
10 -12 2 -24 8 -47 14 -54 4 -3 4 -13 1 -22 -4 -9 -2 -13 4 -9 7 5 9 0 6 -13
-3 -12 0 -20 8 -20 7 0 9 -3 6 -6 -3 -4 0 -16 8 -28 19 -27 19 -47 0 -22 -8
11 -15 15 -15 10 0 -6 11 -21 25 -34 13 -12 22 -27 19 -32 -3 -5 2 -16 12 -23
11 -8 15 -15 10 -15 -5 0 -1 -10 10 -22 10 -12 13 -18 7 -14 -7 4 -13 3 -13
-2 0 -6 7 -13 16 -16 8 -3 12 -10 9 -16 -3 -5 -1 -10 5 -10 6 0 8 -5 5 -10 -3
-6 2 -10 12 -10 15 0 16 -2 3 -10 -13 -8 -12 -10 3 -10 9 0 17 -6 17 -13 0 -7
11 -24 25 -39 14 -15 25 -31 25 -35 0 -5 9 -14 21 -21 15 -9 18 -17 10 -25 -7
-9 -7 -17 1 -27 8 -12 9 -12 4 3 -7 22 7 22 25 0 12 -14 12 -16 -1 -9 -8 4 -6
1 4 -8 10 -8 23 -13 29 -9 6 3 7 1 3 -6 -4 -6 -11 -9 -15 -7 -4 3 -8 -2 -8
-10 0 -10 4 -11 11 -4 15 15 26 12 26 -6 0 -8 -4 -13 -9 -9 -5 3 -12 1 -15 -4
-7 -10 20 -9 30 2 14 13 26 7 14 -7 -7 -10 -8 -21 -2 -32 8 -15 9 -15 15 0 4
10 3 15 -3 11 -6 -3 -10 -1 -10 5 0 7 6 10 13 7 6 -2 11 -11 11 -20 -1 -14 2
-14 19 -6 17 10 19 9 14 -5 -4 -11 -2 -16 6 -14 17 4 68 -37 59 -47 -4 -5 1
-5 11 -2 11 4 17 1 17 -9 0 -11 6 -13 20 -9 12 4 20 2 20 -5 0 -6 4 -8 10 -5
6 3 10 1 10 -4 0 -6 -5 -11 -12 -11 -6 0 -8 -3 -5 -6 4 -4 14 -1 24 7 14 12
16 12 8 0 -6 -11 -4 -13 8 -8 10 3 17 2 17 -4 0 -6 4 -8 9 -4 5 3 16 -2 24
-10 8 -8 29 -16 45 -17 17 -1 29 -6 26 -10 -3 -4 9 -5 26 -3 17 2 28 0 24 -6
-3 -5 -10 -7 -15 -4 -5 3 -6 -2 -2 -11 5 -13 3 -15 -8 -9 -8 4 -11 4 -6 0 4
-5 16 -9 27 -10 15 -1 17 1 9 12 -8 9 -8 13 -1 13 6 0 14 -4 17 -10 10 -16 25
-11 24 8 0 10 -3 12 -6 4 -2 -6 -9 -10 -14 -6 -16 10 -9 20 14 20 19 0 23 -5
21 -23 -2 -20 0 -21 17 -12 11 5 23 8 27 5 4 -3 14 0 22 6 12 8 12 9 -2 4 -10
-3 -20 -1 -23 4 -3 5 13 8 37 7 41 -2 63 -17 37 -26 -6 -2 -9 1 -6 6 3 5 -1
10 -9 10 -13 0 -13 -2 0 -15 13 -13 17 -13 32 -1 9 8 18 12 20 9 1 -3 6 -1 11
4 4 5 3 6 -3 3 -7 -4 -15 0 -18 8 -4 12 -2 13 13 6 10 -6 21 -7 25 -4 3 3 6 2
6 -3 0 -6 -5 -15 -11 -21 -8 -8 -7 -13 2 -18 8 -5 10 -4 5 4 -4 6 0 14 9 17 9
4 14 13 11 21 -3 8 -2 12 3 8 5 -3 21 -1 34 4 19 7 27 6 31 -4 5 -15 46 -9 46
7 0 5 -10 3 -22 -3 -17 -8 -20 -8 -12 0 10 11 34 19 79 26 11 2 20 4 20 5 0 2
10 4 23 5 16 2 22 -2 18 -12 -3 -8 -1 -11 4 -8 6 4 10 12 9 18 -3 25 2 33 21
34 13 1 18 -2 14 -10 -4 -7 -4 -9 1 -5 4 4 15 2 24 -4 9 -7 5 0 -8 15 -24 27
-17 39 8 15 10 -11 12 -9 9 7 -2 12 2 19 10 18 6 -2 12 2 12 7 0 5 6 9 13 7 6
-1 11 4 9 11 -2 10 2 10 17 2 13 -7 22 -7 26 0 4 6 12 7 18 4 7 -4 6 -1 -2 7
-10 11 -15 11 -18 1 -3 -6 -9 -10 -14 -6 -5 3 -2 12 6 21 12 11 19 12 29 4 10
-8 18 -6 32 10 10 11 14 20 9 19 -24 -5 -28 1 -8 15 12 8 30 12 40 9 16 -6 16
-5 -2 10 -11 10 -14 15 -7 11 6 -3 12 -3 12 2 0 4 18 27 39 51 28 31 43 41 57
36 16 -5 16 -4 4 5 -13 9 -12 12 5 26 11 9 14 14 8 10 -7 -3 -13 -1 -13 4 0 6
10 11 23 12 12 0 16 3 10 6 -10 3 -10 10 -2 24 5 11 14 17 18 15 11 -7 35 40
27 53 -4 6 -2 11 3 11 6 0 11 7 11 15 0 9 6 18 14 21 7 3 14 17 14 31 0 15 8
32 18 40 10 7 14 13 8 14 -5 0 0 4 11 9 18 8 18 9 2 9 -10 1 -15 6 -12 12 4 6
14 8 22 4 12 -4 13 -2 5 8 -9 10 -8 17 0 25 7 7 9 12 5 12 -3 0 -2 12 4 28 6
15 13 38 16 52 2 13 9 30 14 37 6 7 7 18 3 24 -5 9 -2 10 11 5 13 -5 15 -3 8
6 -12 15 -13 48 -2 48 4 0 5 9 2 20 -3 11 0 20 6 20 6 0 11 5 11 11 0 5 -4 7
-10 4 -7 -4 -7 2 0 19 6 17 6 26 -3 30 -7 2 -7 5 -2 5 6 1 10 31 8 76 -1 55 2
73 10 68 9 -5 9 -3 1 8 -13 16 -16 71 -3 64 4 -3 11 -1 14 5 4 6 1 9 -7 8 -10
-2 -13 16 -13 79 0 47 -4 79 -9 75 -5 -3 -7 2 -3 10 3 9 0 21 -6 28 -9 10 -9
11 1 5 10 -5 11 -3 3 11 -10 19 -21 48 -28 72 -1 6 -5 18 -6 25 -7 23 -18 52
-28 70 -5 10 -7 23 -3 29 4 6 3 8 -3 5 -6 -4 -18 12 -28 34 -16 35 -26 50 -64
95 -5 7 -7 15 -4 18 4 3 -1 6 -10 6 -9 0 -17 4 -17 9 0 4 -20 30 -45 57 -25
26 -45 45 -45 41 0 -3 -14 7 -31 22 -16 15 -52 39 -79 53 -27 14 -46 29 -42
33 4 5 2 6 -3 2 -10 -5 -31 2 -100 35 -11 5 -30 10 -43 11 -12 0 -22 4 -22 7
0 3 -12 7 -26 8 -14 1 -33 8 -42 14 -18 14 -29 44 -12 33 5 -3 10 -1 10 4 0 6
-5 11 -10 11 -13 0 -9 32 5 42 6 5 5 8 -3 8 -7 0 -10 5 -7 10 4 6 11 7 17 4 7
-4 8 -2 4 5 -4 6 -12 9 -17 6 -5 -4 -9 -1 -9 4 0 6 6 11 13 11 8 0 7 4 -3 10
-13 9 -13 10 0 10 9 0 11 3 4 8 -9 6 -12 66 -5 82 8 16 8 39 1 35 -12 -8 -7
58 5 67 6 5 5 8 -2 8 -7 0 -13 5 -13 11 0 5 6 7 13 3 10 -6 10 -4 0 7 -15 15
-18 33 -5 25 5 -3 9 1 9 9 0 8 -3 12 -7 10 -4 -2 -7 14 -7 35 0 22 5 40 11 40
6 0 4 5 -4 10 -13 8 -13 13 -2 31 8 11 9 18 3 14 -15 -9 -14 8 2 24 10 11 10
13 0 7 -7 -4 -13 -2 -13 3 0 6 6 11 13 11 8 0 8 3 -2 9 -13 8 -13 12 0 27 9
11 9 15 2 10 -9 -5 -13 -1 -13 13 0 10 6 22 13 24 10 4 10 6 0 6 -7 1 -13 8
-13 17 0 8 4 13 9 9 5 -3 13 -1 16 5 4 6 1 9 -7 8 -21 -5 -21 102 0 127 16 19
16 19 0 6 -17 -12 -18 -10 -18 33 0 27 4 45 9 41 5 -3 13 -1 16 5 4 6 1 9 -7
8 -18 -4 -23 59 -6 80 9 11 10 14 1 8 -10 -5 -13 3 -13 29 0 20 4 34 9 30 5
-3 13 -1 16 5 4 6 1 9 -7 8 -10 -2 -13 13 -14 58 -1 34 -4 67 -8 73 -4 6 -3
11 2 11 4 0 6 23 2 50 -4 28 -4 50 -1 50 3 0 4 44 1 97 -4 79 -2 101 10 111 8
8 10 11 4 8 -19 -9 -24 43 -5 54 14 8 13 10 -4 10 -12 1 -15 4 -7 7 10 4 10 8
1 19 -9 11 -8 14 7 14 12 0 15 3 8 8 -6 4 -14 21 -17 39 -5 27 -4 31 11 26 13
-4 13 -2 -3 10 -16 13 -17 17 -5 18 8 1 20 0 25 -1 6 -1 0 9 -12 22 -28 29
-29 40 -5 31 14 -5 13 -3 -3 10 -11 9 -15 17 -8 17 9 0 10 7 4 22 -6 17 -4 26
8 35 14 12 14 12 0 8 -12 -5 -15 1 -14 23 1 15 5 34 10 42 5 9 4 11 -3 6 -17
-10 -15 6 5 34 16 24 16 24 0 11 -20 -16 -22 -8 -6 21 6 11 7 18 2 15 -4 -3
-8 37 -8 88 -1 57 3 91 9 88 5 -4 6 -1 1 6 -4 7 -8 33 -10 57 -2 40 -1 43 14
32 14 -12 15 -11 1 6 -19 24 -19 69 0 78 12 5 11 7 -4 7 -13 1 -17 6 -13 21 3
11 0 20 -6 20 -6 0 -8 2 -5 5 9 9 -62 83 -101 107 -26 17 -53 22 -118 25 -45
1 -83 -1 -83 -6z m20 -3086 c0 6 5 3 11 -5 8 -12 9 -10 4 7 -3 12 -1 25 6 29
7 4 9 3 5 -4 -4 -7 5 -10 28 -8 28 3 33 1 28 -13 -5 -14 -4 -14 12 -2 18 15
68 22 60 9 -3 -4 9 -5 26 -2 19 4 30 2 30 -5 0 -6 8 -11 18 -11 14 0 15 2 2
10 -9 6 -10 10 -3 10 6 0 14 -4 18 -10 3 -5 11 -8 18 -6 7 1 9 1 5 -1 -18 -10
-7 -23 11 -13 27 14 44 13 38 -2 -2 -7 0 -22 5 -33 8 -18 8 -18 4 3 -2 12 0
22 5 22 5 0 9 -3 9 -8 0 -11 49 -62 61 -62 5 0 -5 14 -23 30 -18 17 -25 27
-15 24 9 -3 17 -10 17 -14 0 -5 9 -12 20 -15 12 -4 20 -15 20 -27 0 -12 3 -19
6 -15 12 11 41 -25 36 -46 -3 -13 -1 -18 5 -14 11 7 28 -20 24 -36 0 -4 3 -16
9 -27 8 -15 6 -21 -7 -30 -16 -10 -16 -10 3 -5 18 5 21 1 20 -27 -1 -24 -5
-32 -16 -30 -11 3 -9 -2 5 -18 20 -22 25 -56 10 -79 -6 -10 -4 -12 5 -6 8 5
11 3 8 -6 -3 -8 -10 -14 -16 -14 -5 0 -14 -4 -19 -8 -4 -5 -3 -8 2 -7 23 5 36
-1 29 -12 -4 -7 -7 -27 -6 -45 2 -21 -2 -33 -10 -33 -10 0 -10 -2 -1 -8 8 -5
10 -18 7 -32 -3 -14 -7 -37 -8 -52 0 -16 -4 -28 -7 -28 -3 0 -6 -6 -6 -12 -1
-25 -8 -43 -23 -56 -10 -9 -11 -11 -1 -6 9 4 12 2 9 -7 -3 -8 -10 -13 -16 -12
-5 1 -8 -6 -5 -16 2 -10 -2 -24 -9 -32 -8 -8 -15 -18 -15 -22 -1 -16 -38 -77
-46 -77 -4 0 -5 -5 -2 -10 3 -6 -1 -13 -9 -16 -9 -3 -16 -11 -16 -17 0 -5 -16
-25 -35 -44 -19 -19 -35 -39 -35 -44 0 -6 -4 -7 -10 -4 -5 3 -10 3 -10 -2 0
-16 -96 -62 -123 -59 -14 2 -24 -1 -21 -5 8 -13 -114 -11 -138 2 -12 7 -18 7
-14 1 4 -6 -5 -6 -24 1 -16 6 -30 15 -30 19 0 4 -9 8 -19 8 -11 0 -27 10 -35
22 -9 12 -16 19 -16 15 0 -11 -90 85 -91 98 -1 5 -1 14 0 18 1 5 -3 6 -8 3 -5
-3 -18 10 -30 30 -24 40 -26 48 -9 38 7 -4 8 -3 4 5 -4 6 -11 9 -16 6 -5 -3
-12 5 -16 17 -5 13 -9 25 -10 28 -1 3 -5 15 -9 28 -4 12 -11 22 -14 22 -12 0
-9 30 3 30 6 0 3 5 -7 11 -9 6 -15 14 -12 20 4 5 1 9 -6 9 -8 0 -7 5 2 17 10
11 10 14 2 9 -7 -4 -13 -5 -13 -2 0 2 -3 12 -7 22 -5 12 -3 15 6 9 10 -6 11
-3 2 13 -13 25 -17 74 -7 90 4 7 3 12 -1 12 -10 0 -10 41 1 58 4 7 2 12 -6 12
-9 0 -9 3 2 10 13 9 13 10 0 10 -13 0 -13 1 0 10 9 6 11 10 3 10 -7 0 -10 7
-7 15 4 9 11 12 18 8 7 -5 4 -1 -6 9 -21 19 -24 33 -5 22 7 -5 6 0 -3 11 -11
14 -11 17 -1 11 10 -7 12 -3 6 14 -6 19 -4 22 11 16 18 -6 18 -5 1 8 -17 13
-17 26 -2 74 6 19 10 20 23 10 13 -11 14 -10 5 7 -11 21 -7 45 8 45 4 0 6 -6
3 -14 -3 -8 0 -17 7 -22 8 -4 10 -3 5 5 -4 6 -2 19 5 27 7 8 8 14 3 13 -22 -4
-23 2 -5 22 12 14 27 20 40 16 14 -3 18 -1 14 9 -3 8 -9 11 -14 8 -5 -3 -6 2
-3 11 5 12 9 13 20 4 12 -10 13 -9 8 4 -4 12 5 23 30 37 39 24 52 24 49 0 -1
-8 3 -2 10 13 6 15 16 26 23 23 6 -2 17 1 24 7 10 9 11 7 5 -10 -4 -15 -2 -23
5 -23 6 0 8 5 5 10 -3 6 1 10 9 10 9 0 16 -5 16 -12 0 -6 7 -3 15 8 11 14 15
16 15 4 0 -12 3 -11 11 3 6 10 8 21 5 24 -3 4 -6 1 -6 -5 0 -6 -9 -9 -20 -7
-11 2 -18 0 -15 -5 3 -6 -1 -7 -10 -4 -19 8 -15 13 15 19 12 2 25 7 28 10 4 3
14 -4 24 -17 10 -13 18 -18 18 -13z m830 -1139 c0 -3 -4 -8 -10 -11 -5 -3 -10
-1 -10 4 0 6 5 11 10 11 6 0 10 -2 10 -4z m-220 -280 c0 -3 -4 -8 -10 -11 -5
-3 -10 -1 -10 4 0 6 5 11 10 11 6 0 10 -2 10 -4z m-210 -120 c0 -3 -4 -8 -10
-11 -5 -3 -10 -1 -10 4 0 6 5 11 10 11 6 0 10 -2 10 -4z m-400 -76 c0 -5 -5
-10 -11 -10 -5 0 -7 5 -4 10 3 6 8 10 11 10 2 0 4 -4 4 -10z"/>
<path d="M2603 1816 c-3 -6 -3 -8 2 -4 4 4 13 3 20 -2 8 -7 12 -5 12 3 0 16
-25 18 -34 3z"/>
<path d="M2684 1822 c3 -6 0 -12 -6 -15 -10 -4 -10 -7 0 -18 11 -12 13 -12 10
1 -2 9 4 14 15 14 23 -2 22 3 -4 17 -13 6 -19 7 -15 1z"/>
<path d="M2743 1812 c-9 -6 -8 -11 5 -19 15 -9 18 -7 19 8 2 20 -5 23 -24 11z"/>
<path d="M2420 1800 c0 -5 5 -10 11 -10 5 0 7 5 4 10 -3 6 -8 10 -11 10 -2 0
-4 -4 -4 -10z"/>
<path d="M2374 1785 c-4 -8 -9 -13 -14 -10 -4 2 -13 -1 -21 -8 -8 -7 -12 -11
-10 -10 2 1 12 -2 22 -8 11 -5 18 -6 17 -2 -1 4 3 18 10 31 7 12 10 22 7 22
-3 0 -8 -7 -11 -15z"/>
<path d="M2846 1784 c-11 -8 -16 -14 -10 -14 13 0 39 18 34 24 -3 2 -14 -2
-24 -10z"/>
<path d="M2455 1771 c-3 -5 -2 -12 3 -15 5 -3 9 1 9 9 0 17 -3 19 -12 6z"/>
<path d="M2270 1680 c6 -11 13 -20 16 -20 2 0 0 9 -6 20 -6 11 -13 20 -16 20
-2 0 0 -9 6 -20z"/>
<path d="M3000 1680 c8 -5 20 -10 25 -10 6 0 3 5 -5 10 -8 5 -19 10 -25 10 -5
0 -3 -5 5 -10z"/>
<path d="M3012 1625 c3 -3 16 -8 28 -10 12 -2 20 -1 16 2 -4 4 -16 8 -28 10
-12 2 -19 1 -16 -2z"/>
<path d="M2195 1579 c-3 -4 2 -6 10 -5 21 3 28 13 10 13 -9 0 -18 -4 -20 -8z"/>
<path d="M3056 1522 c-3 -5 1 -9 9 -9 8 0 12 4 9 9 -3 4 -7 8 -9 8 -2 0 -6 -4
-9 -8z"/>
<path d="M4660 4893 c-19 -8 -37 -19 -40 -23 -3 -5 -12 -10 -19 -12 -8 -2 -23
-11 -33 -21 -10 -10 -24 -15 -30 -11 -7 4 -8 3 -4 -4 4 -6 -5 -19 -21 -29 -29
-19 -36 -24 -102 -86 -23 -22 -46 -35 -53 -31 -7 4 -8 3 -4 -5 8 -12 -18 -44
-28 -34 -3 4 -6 1 -6 -6 0 -6 -19 -32 -42 -56 -24 -25 -56 -61 -73 -81 -16
-20 -41 -48 -55 -62 -14 -14 -18 -21 -10 -17 13 8 13 7 1 -8 -11 -14 -17 -15
-30 -5 -14 12 -15 11 -1 -6 13 -16 12 -20 -4 -31 -9 -7 -17 -17 -18 -22 0 -4
-4 -7 -9 -6 -5 2 -8 0 -7 -5 4 -13 -13 -52 -21 -48 -4 3 -8 0 -8 -7 0 -7 -15
-37 -34 -67 -19 -30 -43 -74 -53 -97 -10 -23 -23 -40 -29 -36 -6 3 -7 1 -3 -5
4 -6 1 -22 -6 -34 -12 -23 -15 -29 -17 -49 0 -6 -9 -8 -18 -4 -14 5 -15 3 -6
-6 7 -7 8 -18 3 -28 -5 -9 -17 -35 -26 -58 -10 -23 -21 -40 -26 -37 -4 3 -5
-2 -2 -11 4 -9 2 -26 -4 -38 -9 -20 -23 -55 -27 -67 -11 -41 -59 -191 -66
-208 -5 -13 -7 -28 -4 -33 4 -5 2 -9 -3 -9 -5 0 -9 -6 -9 -12 0 -7 -4 -29 -8
-48 -4 -19 -8 -41 -8 -47 0 -16 -17 -17 -17 -1 0 6 -3 8 -6 5 -4 -4 -2 -12 3
-19 14 -18 5 -69 -15 -86 -9 -7 -11 -11 -4 -7 8 4 12 -1 12 -15 0 -12 -4 -18
-10 -15 -7 4 -9 -5 -5 -25 3 -17 2 -29 -2 -27 -5 3 -8 -12 -7 -34 0 -21 -4
-39 -9 -39 -6 0 -7 -3 -4 -7 4 -3 -1 -16 -10 -27 -17 -20 -17 -20 1 -6 18 14
18 13 11 -10 -5 -14 -8 -33 -7 -43 0 -9 -4 -15 -9 -11 -12 7 -7 -19 6 -28 6
-5 5 -8 -2 -8 -7 0 -10 -7 -6 -17 5 -12 3 -14 -8 -8 -12 7 -12 6 -1 -7 7 -9 9
-19 4 -22 -5 -3 -7 -18 -4 -32 4 -21 2 -25 -9 -19 -12 7 -12 6 -1 -7 10 -13
10 -17 0 -21 -9 -4 -9 -6 -1 -6 8 -1 9 -10 3 -32 -5 -18 -7 -35 -5 -40 3 -4
-1 -10 -7 -12 -10 -4 -10 -6 1 -6 10 -1 10 -7 -4 -27 -9 -15 -12 -24 -7 -20 7
4 9 -14 7 -51 -2 -32 -4 -58 -5 -58 -1 0 -3 -50 -4 -110 -1 -61 -6 -117 -11
-124 -5 -9 -4 -12 2 -8 6 4 9 -8 8 -29 0 -20 3 -38 7 -40 5 -3 6 -10 2 -15 -3
-5 1 -21 10 -34 9 -13 16 -28 16 -32 0 -4 -5 -1 -10 7 -7 11 -10 12 -10 2 0
-8 9 -16 20 -19 23 -6 25 -14 8 -33 -11 -12 -10 -12 4 -1 9 7 21 10 27 7 13
-8 6 -42 -9 -38 -6 1 -9 -2 -6 -7 7 -11 32 -9 43 4 4 4 2 5 -6 0 -10 -6 -12
-4 -7 4 6 9 12 8 26 -4 10 -9 24 -18 32 -19 7 -1 23 -7 34 -14 12 -6 25 -8 28
-4 4 4 12 -1 17 -11 9 -15 13 -15 37 -4 30 15 41 15 60 4 7 -5 12 -3 12 5 0
10 2 10 9 -1 6 -9 11 -10 15 -2 4 6 12 9 17 5 5 -3 7 -10 3 -15 -3 -5 -10 -6
-16 -3 -7 5 -8 2 -3 -6 6 -10 12 -8 25 8 10 12 20 18 24 15 11 -12 40 -12 52
-2 8 7 14 6 19 -1 5 -8 11 -8 21 1 8 6 14 7 14 2 0 -8 55 -10 70 -3 3 1 10 1
15 0 38 -8 45 -8 50 1 4 5 12 6 18 2 17 -11 31 -10 39 2 5 6 8 5 8 -3 0 -11
10 -11 55 -2 6 1 12 2 15 0 3 -1 15 -3 28 -6 17 -3 21 0 16 8 -4 7 2 5 13 -5
16 -14 23 -15 29 -6 5 8 3 10 -6 4 -9 -5 -11 -4 -6 3 5 9 13 9 26 2 25 -13 33
-13 24 2 -4 7 -3 8 5 4 6 -4 8 -12 5 -18 -5 -7 -1 -9 9 -5 18 7 33 -8 17 -18
-5 -3 -10 -11 -10 -16 0 -6 6 -7 13 -3 7 5 6 0 -3 -11 -9 -11 -10 -16 -2 -11
6 4 12 3 12 -3 0 -5 -6 -12 -12 -14 -10 -4 -10 -6 0 -6 10 -1 10 -6 1 -22 -6
-12 -7 -19 -2 -16 4 3 9 -12 9 -34 1 -25 -3 -36 -10 -32 -6 4 -5 -1 3 -10 11
-14 11 -17 0 -17 -11 0 -11 -2 1 -10 13 -9 13 -10 0 -10 -9 0 -11 -3 -5 -8 12
-9 17 -75 5 -67 -10 6 -8 -15 3 -32 5 -8 3 -13 -5 -13 -8 0 -9 -3 -3 -8 12 -9
17 -75 5 -67 -10 6 -8 -15 3 -32 5 -8 3 -13 -5 -13 -8 0 -9 -3 -3 -8 12 -9 17
-75 5 -67 -10 6 -8 -15 3 -32 5 -8 3 -13 -5 -13 -8 0 -9 -3 -3 -8 12 -9 17
-75 5 -67 -10 6 -8 -15 3 -32 5 -8 3 -13 -5 -13 -8 0 -9 -3 -3 -8 13 -9 14
-55 0 -64 -6 -5 -4 -8 5 -8 13 0 13 -1 0 -10 -12 -8 -12 -10 -1 -10 11 0 9 -5
-5 -22 -10 -12 -14 -18 -7 -15 17 10 28 -13 12 -24 -8 -5 -9 -9 -4 -9 6 0 11
-16 11 -35 1 -19 -2 -32 -6 -30 -10 6 -7 -15 3 -32 5 -8 3 -13 -5 -13 -8 0 -9
-3 -3 -8 12 -9 17 -75 5 -67 -10 6 -8 -15 3 -33 5 -7 3 -12 -5 -12 -8 0 -9 -3
-3 -8 12 -9 17 -75 5 -67 -10 6 -8 -15 3 -32 5 -8 3 -13 -5 -13 -8 0 -9 -3 -3
-8 12 -9 17 -75 5 -67 -10 6 -8 -15 3 -33 5 -7 3 -12 -5 -12 -8 0 -9 -3 -3 -8
13 -9 14 -55 0 -64 -6 -5 -4 -8 5 -8 13 0 13 -1 0 -10 -8 -5 -10 -10 -4 -10 6
0 11 -7 11 -15 0 -8 -4 -12 -8 -9 -4 2 -11 -1 -15 -7 -4 -7 -3 -9 4 -5 6 3 14
1 18 -5 3 -6 0 -15 -7 -20 -8 -5 -9 -9 -4 -9 6 0 11 -16 11 -35 1 -19 -2 -32
-6 -30 -10 6 -7 -15 3 -32 5 -8 3 -13 -5 -13 -8 0 -9 -3 -3 -8 6 -4 11 -22 10
-40 0 -19 4 -36 9 -40 5 -3 6 1 1 9 -7 12 -5 12 6 1 12 -11 12 -14 0 -21 -11
-7 -9 -10 8 -16 13 -4 20 -12 17 -20 -3 -9 0 -12 10 -8 9 3 14 -2 14 -17 0
-11 5 -18 10 -15 6 3 10 -2 10 -12 0 -15 2 -16 10 -3 8 13 10 12 11 -5 1 -11
1 -23 0 -27 0 -4 7 -4 16 -1 10 4 14 2 10 -4 -3 -5 1 -10 10 -10 12 0 11 5 -7
19 -12 10 -17 18 -12 18 6 0 14 -5 17 -10 4 -6 14 -10 23 -8 25 4 42 -10 36
-30 -5 -14 -4 -14 4 -2 6 8 8 18 5 23 -3 5 0 7 8 5 8 -3 13 -14 11 -24 -2 -15
-1 -16 7 -4 5 8 7 18 5 22 -3 4 2 8 10 8 19 0 21 -11 4 -28 -8 -8 -8 -12 -1
-12 6 0 13 7 17 15 8 21 27 19 19 -2 -5 -16 -4 -15 9 1 8 10 20 16 25 13 6 -4
10 -1 9 6 0 6 1 12 4 12 3 1 18 12 33 25 16 14 34 26 40 26 7 1 18 2 26 3 11
1 10 5 -5 17 -18 15 -18 15 11 9 29 -6 29 -6 10 10 -20 16 -20 17 0 10 11 -3
16 -3 12 1 -4 4 -1 14 6 22 9 13 9 14 0 8 -19 -11 -16 3 5 22 10 10 13 14 6 9
-8 -5 -12 1 -11 18 0 20 4 25 16 21 15 -6 15 -5 0 6 -19 15 -23 78 -6 78 7 0
6 4 -3 10 -13 8 -13 13 -2 31 8 11 9 18 3 14 -6 -3 -11 1 -11 10 0 12 5 15 18
11 15 -5 15 -5 1 6 -19 15 -23 78 -6 78 7 0 6 4 -3 10 -13 8 -13 13 -2 31 8
11 9 18 3 14 -6 -3 -11 1 -11 10 0 12 5 15 18 11 15 -5 15 -5 1 6 -19 15 -23
78 -6 78 7 0 6 4 -3 10 -13 8 -13 13 -2 31 8 11 9 18 3 14 -6 -3 -11 1 -11 10
0 12 5 15 18 11 15 -5 15 -5 1 6 -19 15 -23 78 -6 78 7 0 6 4 -3 10 -13 8 -13
13 -2 31 8 11 9 18 3 14 -6 -3 -11 1 -11 10 0 12 5 15 18 11 15 -5 15 -5 1 6
-19 15 -23 78 -6 78 7 0 6 4 -3 10 -13 8 -13 13 -2 31 8 11 9 18 3 14 -6 -3
-11 1 -11 10 0 12 5 15 18 11 15 -5 15 -5 1 6 -19 15 -23 78 -6 78 7 0 6 4 -3
10 -13 8 -13 13 -2 31 8 11 9 18 3 14 -6 -3 -11 1 -11 10 0 12 5 15 18 11 15
-5 15 -5 1 6 -19 15 -23 78 -6 78 7 0 6 4 -3 10 -13 8 -13 13 -2 31 8 11 9 18
3 14 -6 -3 -11 1 -11 10 0 12 5 15 18 11 15 -5 15 -5 1 6 -19 15 -23 78 -6 78
7 0 6 4 -3 10 -13 8 -13 13 -2 31 8 11 9 18 3 14 -6 -3 -11 1 -11 10 0 12 5
15 18 11 15 -5 15 -5 1 6 -19 15 -23 78 -6 78 7 0 6 4 -3 10 -13 8 -13 13 -2
31 8 11 9 18 3 14 -6 -3 -11 1 -11 10 0 12 5 15 18 11 15 -5 15 -5 1 6 -19 15
-23 78 -6 78 7 0 6 4 -3 10 -13 8 -13 13 -2 31 8 11 9 18 3 14 -6 -3 -11 1
-11 10 0 12 5 15 18 11 15 -5 15 -5 1 6 -19 15 -23 78 -6 78 7 0 6 4 -3 10
-13 8 -13 13 -2 31 8 11 9 18 3 14 -6 -3 -11 1 -11 10 0 12 5 15 18 11 15 -5
15 -5 1 6 -19 15 -23 78 -6 78 7 0 6 4 -3 10 -13 8 -13 13 -2 31 8 11 9 18 3
14 -6 -3 -11 1 -11 10 0 12 5 15 18 11 15 -5 15 -5 1 6 -19 15 -23 78 -6 78 7
0 6 4 -3 10 -13 8 -13 13 -2 31 8 11 9 18 3 14 -6 -3 -11 1 -11 10 0 12 5 15
18 11 15 -5 15 -5 1 6 -19 15 -23 78 -6 78 7 0 6 4 -3 10 -13 8 -13 13 -2 31
8 11 9 18 3 14 -6 -3 -11 1 -11 10 0 12 5 15 18 11 15 -5 15 -5 1 6 -19 15
-23 78 -6 78 7 0 6 4 -3 10 -13 8 -13 13 -2 31 8 11 9 18 3 14 -6 -3 -11 1
-11 10 0 12 5 15 18 11 15 -5 15 -5 1 6 -19 15 -23 78 -6 78 7 0 6 4 -3 10
-13 8 -13 13 -2 31 8 11 9 18 3 14 -6 -3 -11 1 -11 10 0 12 5 15 18 11 15 -5
15 -5 1 6 -19 15 -23 78 -6 78 7 0 6 4 -3 10 -13 8 -13 13 -2 31 8 11 9 18 3
14 -6 -3 -11 1 -11 10 0 12 5 15 18 11 15 -5 15 -5 1 6 -19 15 -23 78 -6 78 7
0 6 4 -3 10 -13 8 -13 13 -2 31 8 11 9 18 3 14 -6 -3 -11 1 -11 10 0 12 5 15
18 11 15 -5 15 -5 1 6 -19 15 -23 78 -6 78 7 0 6 4 -3 10 -13 8 -13 13 -2 31
8 11 9 18 3 14 -6 -3 -11 1 -11 10 0 12 5 15 18 11 15 -5 15 -5 1 6 -19 15
-23 78 -6 78 7 0 6 4 -3 10 -13 8 -13 13 -2 31 8 11 9 18 3 14 -6 -3 -11 1
-11 10 0 12 5 15 18 11 15 -5 15 -5 1 6 -19 15 -23 78 -6 78 7 0 6 4 -3 10
-13 8 -13 13 -2 31 8 11 9 18 3 14 -6 -3 -11 1 -11 10 0 12 5 15 18 11 15 -5
15 -5 1 6 -19 15 -23 78 -6 78 7 0 6 4 -3 10 -13 8 -13 13 -2 31 8 11 9 18 3
14 -6 -3 -11 1 -11 10 0 12 5 15 18 11 15 -5 15 -5 1 6 -19 15 -23 78 -6 78 7
0 6 4 -3 10 -13 8 -13 13 -2 31 8 11 9 18 3 14 -6 -3 -11 1 -11 10 0 12 5 15
18 11 15 -5 15 -5 1 6 -19 15 -23 78 -6 78 7 0 6 4 -3 10 -13 8 -13 13 -2 31
8 11 9 18 3 14 -6 -3 -11 1 -11 10 0 12 5 15 18 11 15 -5 15 -5 1 6 -19 15
-23 78 -6 78 7 0 6 4 -3 10 -13 8 -13 13 -2 31 8 11 9 18 3 14 -6 -3 -11 1
-11 10 0 12 5 15 18 11 15 -5 15 -5 1 6 -19 15 -23 78 -6 78 7 0 6 4 -3 10
-13 8 -13 13 -2 31 8 11 9 18 3 14 -6 -3 -11 1 -11 10 0 12 5 15 18 11 15 -5
15 -5 -1 8 -19 15 -20 45 -2 58 6 5 5 8 -2 8 -7 0 -13 11 -13 25 0 14 6 25 13
25 9 0 9 2 0 8 -7 4 -12 16 -12 27 -1 42 -5 54 -14 48 -6 -4 -8 1 -4 11 4 10
3 15 -3 11 -6 -4 -14 4 -19 17 -6 13 -10 20 -10 16 -1 -3 -14 6 -30 21 -53 50
-176 67 -251 34z m-150 -818 c11 -13 10 -14 -6 -8 -17 6 -17 5 -5 -10 7 -9 18
-14 25 -10 6 4 5 -1 -3 -10 -8 -11 -9 -17 -3 -17 6 0 9 -7 5 -16 -5 -15 -7
-15 -15 0 -5 9 -7 20 -3 25 6 11 -22 8 -32 -4 -4 -4 -3 -5 3 -2 6 4 16 -5 22
-18 7 -14 17 -25 24 -25 9 0 8 -3 -2 -10 -13 -9 -13 -11 0 -20 13 -8 12 -10
-5 -11 l-20 0 20 -9 c13 -6 15 -9 5 -9 -9 -1 -11 -4 -5 -9 16 -11 17 -34 3
-43 -10 -7 -10 -9 2 -9 13 0 13 -1 0 -11 -12 -9 -13 -12 -1 -16 11 -5 11 -7 0
-14 -10 -6 -11 -9 -1 -9 6 0 12 -5 12 -11 0 -5 -5 -7 -12 -3 -7 5 -8 3 -3 -7
16 -25 13 -50 -4 -44 -13 4 -12 2 2 -9 20 -15 23 -31 5 -20 -10 5 -10 4 -1 -6
9 -9 9 -19 2 -33 -6 -11 -7 -17 -2 -14 12 8 11 -146 -2 -155 -6 -5 -6 -8 0 -8
6 0 11 -16 11 -35 1 -23 -2 -32 -10 -28 -6 4 -4 -2 4 -12 13 -17 13 -18 0 -10
-13 8 -13 7 -1 -8 11 -14 11 -17 0 -17 -9 0 -10 -3 -4 -8 6 -4 11 -22 12 -40
2 -30 0 -32 -15 -20 -13 9 -12 7 2 -10 14 -17 16 -22 5 -22 -11 0 -11 -2 1
-10 13 -9 13 -10 0 -10 -9 0 -11 -3 -5 -8 13 -9 14 -55 0 -64 -6 -5 -4 -8 5
-8 13 0 13 -1 0 -10 -8 -5 -10 -10 -4 -10 6 0 11 -7 11 -15 0 -8 -4 -12 -8 -9
-4 2 -11 -1 -15 -7 -4 -7 -3 -9 4 -5 6 3 14 1 18 -5 3 -6 0 -15 -7 -20 -8 -5
-9 -9 -4 -9 6 0 11 -16 11 -35 1 -19 -2 -32 -6 -30 -10 6 -7 -15 3 -32 5 -8 3
-13 -5 -13 -8 0 -9 -3 -3 -8 12 -9 17 -75 5 -67 -10 6 -8 -15 3 -32 5 -8 3
-13 -5 -13 -8 0 -9 -3 -3 -8 12 -9 17 -75 5 -67 -10 6 -8 -15 3 -32 5 -8 3
-13 -5 -13 -8 0 -9 -3 -3 -8 15 -11 17 -74 2 -65 -7 4 -5 -2 3 -12 13 -17 13
-18 0 -10 -13 8 -13 7 -1 -8 11 -14 11 -17 0 -17 -9 0 -10 -3 -4 -8 14 -10 17
-32 5 -32 -6 0 -10 -5 -10 -11 0 -5 5 -7 12 -3 6 4 8 3 5 -3 -3 -5 -33 -9 -67
-9 -33 1 -60 -3 -60 -7 0 -5 -6 -5 -12 -1 -18 11 -108 11 -108 0 0 -5 -6 -4
-12 1 -7 5 -40 8 -73 8 -33 -1 -66 3 -74 9 -11 8 -13 8 -7 -1 4 -8 1 -13 -9
-13 -10 0 -13 5 -9 13 5 8 2 8 -9 -2 -14 -11 -17 -11 -18 0 0 8 -2 24 -3 37
-2 12 0 22 3 22 3 0 6 26 6 58 0 38 5 61 15 70 8 8 10 11 4 8 -15 -7 -27 21
-13 30 6 3 8 12 5 20 -5 13 6 19 27 15 5 -1 6 3 2 9 -3 6 -11 8 -16 5 -5 -4
-9 3 -9 15 0 12 4 19 9 15 5 -3 13 -1 16 5 4 6 1 9 -7 8 -20 -5 -17 34 6 62
15 17 16 21 4 11 -22 -16 -24 1 -3 19 8 7 15 18 14 24 0 7 -2 6 -6 -1 -2 -7
-9 -13 -13 -13 -11 0 10 63 24 72 8 6 8 8 0 8 -16 0 -13 28 4 35 12 4 12 8 1
22 -10 12 -10 14 -1 9 6 -4 12 -2 12 3 0 6 -6 11 -12 11 -7 1 -1 8 15 16 15 8
27 17 27 20 0 2 -10 0 -22 -7 -18 -10 -20 -9 -15 6 4 9 7 21 7 26 0 6 6 7 13
3 9 -5 9 -4 0 6 -8 9 -9 20 -2 38 5 14 12 37 14 51 6 43 16 84 21 93 3 5 8 21
10 36 3 15 12 38 21 51 8 13 11 21 6 18 -6 -4 6 39 26 93 19 55 39 100 43 100
5 0 4 -10 -2 -22 -11 -22 -10 -22 4 -4 12 14 13 23 5 33 -9 9 -8 13 0 13 7 0
9 5 5 12 -5 7 -3 8 5 4 8 -5 11 -3 10 5 -5 23 11 69 23 69 9 0 9 -3 0 -12 -7
-7 -12 -16 -12 -22 0 -5 6 -2 13 9 9 11 20 15 28 11 8 -4 4 0 -8 9 -21 16 -22
51 0 38 5 -3 7 -1 4 4 -4 6 0 25 9 42 17 33 27 42 17 14 -8 -23 1 -14 17 16 8
15 8 21 1 17 -13 -8 -14 -4 -5 19 6 13 9 14 16 3 7 -9 8 -7 5 10 -3 12 -2 22
3 22 12 0 21 -30 14 -43 -5 -9 -3 -8 6 0 11 10 10 16 -2 35 -13 20 -13 25 -1
36 7 7 11 18 7 23 -3 5 0 8 7 7 7 -2 14 3 15 10 1 6 2 17 3 22 1 14 6 13 21
-5z m-680 -1989 c0 -3 -4 -8 -10 -11 -5 -3 -10 -1 -10 4 0 6 5 11 10 11 6 0
10 -2 10 -4z m1010 -1872 c0 -8 -19 -13 -24 -6 -3 5 1 9 9 9 8 0 15 -2 15 -3z"/>
<path d="M4467 3999 c7 -7 15 -10 18 -7 3 3 -2 9 -12 12 -14 6 -15 5 -6 -5z"/>
<path d="M4394 3869 c-3 -6 -2 -15 3 -20 5 -5 9 -1 9 11 0 23 -2 24 -12 9z"/>
<path d="M4268 3583 c7 -3 16 -2 19 1 4 3 -2 6 -13 5 -11 0 -14 -3 -6 -6z"/>
<path d="M4226 3464 c-5 -14 -4 -15 9 -4 17 14 19 20 6 20 -5 0 -12 -7 -15
-16z"/>
<path d="M4210 3399 c0 -5 5 -7 10 -4 6 3 10 8 10 11 0 2 -4 4 -10 4 -5 0 -10
-5 -10 -11z"/>
<path d="M4210 3371 c0 -6 4 -13 10 -16 6 -3 7 1 4 9 -7 18 -14 21 -14 7z"/>
<path d="M80 4480 c-9 -6 -10 -10 -3 -10 6 0 15 5 18 10 8 12 4 12 -15 0z"/>
<path d="M1295 4479 c-4 -6 -5 -12 -2 -15 2 -3 7 2 10 11 7 17 1 20 -8 4z"/>
<path d="M2875 4480 c-3 -5 -1 -10 4 -10 6 0 11 5 11 10 0 6 -2 10 -4 10 -3 0
-8 -4 -11 -10z"/>
<path d="M2376 4317 c3 -10 9 -15 12 -12 3 3 0 11 -7 18 -10 9 -11 8 -5 -6z"/>
<path d="M80 4000 c-9 -6 -10 -10 -3 -10 6 0 15 5 18 10 8 12 4 12 -15 0z"/>
<path d="M2375 3580 c3 -5 8 -10 11 -10 2 0 4 5 4 10 0 6 -5 10 -11 10 -5 0
-7 -4 -4 -10z"/>
<path d="M2359 3513 c-13 -16 -12 -17 4 -4 16 13 21 21 13 21 -2 0 -10 -8 -17
-17z"/>
<path d="M1966 3498 c3 -5 10 -6 15 -3 13 9 11 12 -6 12 -8 0 -12 -4 -9 -9z"/>
<path d="M2895 3500 c-3 -5 -1 -10 4 -10 6 0 11 5 11 10 0 6 -2 10 -4 10 -3 0
-8 -4 -11 -10z"/>
<path d="M1940 3439 c0 -5 5 -7 10 -4 6 3 10 8 10 11 0 2 -4 4 -10 4 -5 0 -10
-5 -10 -11z"/>
<path d="M152 3394 c10 -10 20 -16 22 -13 3 3 -5 11 -17 18 -21 13 -21 12 -5
-5z"/>
<path d="M188 3353 c6 -2 9 -10 6 -15 -4 -7 -2 -8 5 -4 13 9 5 26 -12 25 -9 0
-8 -2 1 -6z"/>
<path d="M1880 3326 c0 -2 7 -7 16 -10 8 -3 12 -2 9 4 -6 10 -25 14 -25 6z"/>
<path d="M1873 3285 c0 -8 4 -12 9 -9 5 3 6 10 3 15 -9 13 -12 11 -12 -6z"/>
<path d="M274 3239 c-5 -8 -3 -9 6 -4 9 6 12 4 8 -7 -4 -9 0 -15 8 -15 18 0
18 11 0 26 -11 9 -16 9 -22 0z"/>
<path d="M1779 3223 c-13 -14 -19 -23 -12 -20 6 4 14 1 17 -5 3 -7 4 -4 3 7
-1 11 3 19 9 18 6 -1 11 5 11 13 0 18 1 19 -28 -13z"/>
<path d="M315 3200 c-3 -5 -1 -10 4 -10 6 0 11 5 11 10 0 6 -2 10 -4 10 -3 0
-8 -4 -11 -10z"/>
<path d="M338 3173 c6 -2 10 -8 8 -11 -2 -4 8 -8 22 -9 l27 -1 -25 14 c-14 7
-29 13 -35 13 -5 0 -4 -3 3 -6z"/>
<path d="M1667 3113 c3 -7 6 -13 8 -13 1 0 7 6 13 13 8 10 6 13 -7 13 -11 0
-17 -6 -14 -13z"/>
<path d="M444 3105 c8 -8 18 -15 22 -15 3 0 1 7 -6 15 -7 8 -17 15 -22 15 -5
0 -3 -7 6 -15z"/>
<path d="M406 3102 c-3 -5 1 -9 9 -9 8 0 12 4 9 9 -3 4 -7 8 -9 8 -2 0 -6 -4
-9 -8z"/>
<path d="M508 3073 c5 -10 7 -24 4 -32 -4 -12 -3 -12 10 -1 13 12 13 16 -1 32
-20 23 -24 23 -13 1z"/>
<path d="M1534 3058 c-4 -7 -4 -10 1 -6 4 4 14 0 22 -10 13 -15 13 -15 3 6
-12 25 -16 27 -26 10z"/>
<path d="M550 3037 c0 -5 7 -7 15 -4 8 4 17 2 20 -4 7 -10 25 -3 25 10 0 5
-13 8 -30 7 -16 0 -30 -5 -30 -9z"/>
<path d="M1491 3034 c0 -11 3 -14 6 -6 3 7 2 16 -1 19 -3 4 -6 -2 -5 -13z"/>
<path d="M726 3022 c-3 -6 -2 -13 4 -17 5 -3 10 -3 10 2 0 4 5 0 11 -10 5 -9
7 -22 4 -27 -3 -6 -4 -10 -1 -10 3 0 11 10 17 23 6 12 8 19 4 15 -4 -4 -15 2
-25 14 -11 14 -19 17 -24 10z"/>
<path d="M1383 3009 c-2 -23 3 -25 10 -4 4 8 3 16 -1 19 -4 3 -9 -4 -9 -15z"/>
<path d="M1308 3008 c6 -6 8 -18 5 -27 -4 -14 -3 -14 5 -1 18 27 17 33 -2 36
-13 2 -15 -1 -8 -8z"/>
<path d="M1350 3010 c0 -5 5 -10 10 -10 6 0 10 5 10 10 0 6 -4 10 -10 10 -5 0
-10 -4 -10 -10z"/>
<path d="M686 3002 c-2 -4 4 -8 14 -8 10 0 16 4 14 8 -3 4 -9 8 -14 8 -5 0
-11 -4 -14 -8z"/>
<path d="M1335 2980 c-3 -5 -1 -10 4 -10 6 0 11 5 11 10 0 6 -2 10 -4 10 -3 0
-8 -4 -11 -10z"/>
<path d="M1315 2951 c-3 -5 -2 -12 3 -15 5 -3 9 1 9 9 0 17 -3 19 -12 6z"/>
<path d="M1290 2920 c0 -5 5 -10 11 -10 5 0 7 5 4 10 -3 6 -8 10 -11 10 -2 0
-4 -4 -4 -10z"/>
<path d="M2370 2819 c0 -5 5 -7 10 -4 6 3 10 8 10 11 0 2 -4 4 -10 4 -5 0 -10
-5 -10 -11z"/>
<path d="M2357 2319 c7 -7 15 -10 18 -7 3 3 -2 9 -12 12 -14 6 -15 5 -6 -5z"/>
<path d="M3547 2319 c7 -7 15 -10 18 -7 3 3 -2 9 -12 12 -14 6 -15 5 -6 -5z"/>
<path d="M3550 2256 c0 -2 8 -10 18 -17 15 -13 16 -12 3 4 -13 16 -21 21 -21
13z"/>
<path d="M3675 2100 c-3 -6 1 -7 9 -4 18 7 21 14 7 14 -6 0 -13 -4 -16 -10z"/>
<path d="M3711 2084 c0 -11 3 -14 6 -6 3 7 2 16 -1 19 -3 4 -6 -2 -5 -13z"/>
<path d="M3740 2088 c14 -16 13 -31 -2 -22 -7 5 -8 3 -3 -5 5 -9 10 -10 18 -2
8 8 6 15 -6 26 -9 8 -12 10 -7 3z"/>
<path d="M3775 2070 c-3 -5 -1 -10 4 -10 6 0 11 5 11 10 0 6 -2 10 -4 10 -3 0
-8 -4 -11 -10z"/>
<path d="M3855 2070 c-3 -5 -1 -11 4 -14 5 -4 13 -1 17 5 4 8 9 7 16 -2 8 -12
9 -12 6 0 -5 16 -35 24 -43 11z"/>
<path d="M4034 2069 c-4 -7 -3 -9 4 -5 5 3 13 0 15 -6 4 -9 6 -10 6 -1 1 17
-16 25 -25 12z"/>
<path d="M4154 2068 c-4 -6 -3 -8 4 -4 6 3 13 2 17 -4 9 -14 35 -13 35 2 0 6
-3 8 -6 5 -4 -3 -15 -2 -25 3 -12 7 -20 6 -25 -2z"/>
<path d="M4241 2063 c7 -12 16 -19 19 -14 3 4 13 7 23 5 9 -1 15 1 12 6 -3 5
-13 7 -23 5 -9 -1 -23 3 -31 9 -12 9 -12 8 0 -11z"/>
<path d="M4340 2070 c-12 -8 -12 -10 3 -16 21 -8 35 2 21 16 -5 5 -15 6 -24 0z"/>
<path d="M3913 2048 c1 -15 6 -23 11 -18 4 4 4 16 -2 26 -9 16 -10 14 -9 -8z"/>
<path d="M3975 2061 c3 -6 14 -9 25 -8 23 2 17 10 -11 14 -11 2 -18 -1 -14 -6z"/>
<path d="M4070 2059 c0 -6 5 -7 10 -4 6 3 10 0 10 -7 0 -9 3 -10 8 -2 4 6 15
10 25 8 11 -1 16 0 13 4 -11 10 -66 11 -66 1z"/>
<path d="M4455 2060 c3 -5 13 -10 21 -10 8 0 14 -5 14 -12 0 -6 3 -8 7 -4 5 4
-1 14 -11 22 -23 16 -40 19 -31 4z"/>
<path d="M3834 2040 c0 -13 4 -16 10 -10 7 7 7 13 0 20 -6 6 -10 3 -10 -10z"/>
<path d="M4216 2043 c-6 -14 -5 -15 5 -6 7 7 10 15 7 18 -3 3 -9 -2 -12 -12z"/>
<path d="M4376 2043 c-6 -14 -5 -15 5 -6 7 7 10 15 7 18 -3 3 -9 -2 -12 -12z"/>
<path d="M4146 2042 c-3 -5 1 -9 9 -9 8 0 15 4 15 9 0 4 -4 8 -9 8 -6 0 -12
-4 -15 -8z"/>
<path d="M4306 2042 c-3 -5 1 -9 9 -9 8 0 15 4 15 9 0 4 -4 8 -9 8 -6 0 -12
-4 -15 -8z"/>
<path d="M4416 2042 c-2 -4 4 -8 15 -8 10 0 19 4 19 8 0 4 -6 8 -14 8 -8 0
-17 -4 -20 -8z"/>
<path d="M1296 1882 c-3 -5 1 -9 9 -9 8 0 12 4 9 9 -3 4 -7 8 -9 8 -2 0 -6 -4
-9 -8z"/>
<path d="M1315 1681 c-3 -5 -2 -12 3 -15 5 -3 9 1 9 9 0 17 -3 19 -12 6z"/>
<path d="M1295 1239 c-4 -6 -5 -12 -2 -15 2 -3 7 2 10 11 7 17 1 20 -8 4z"/>
<path d="M1676 1197 c3 -10 9 -15 12 -12 3 3 0 11 -7 18 -10 9 -11 8 -5 -6z"/>
<path d="M1292 1000 c0 -14 2 -19 5 -12 2 6 2 18 0 25 -3 6 -5 1 -5 -13z"/>
<path d="M3535 959 c-4 -6 -5 -12 -2 -15 2 -3 7 2 10 11 7 17 1 20 -8 4z"/>
<path d="M1293 835 c0 -8 4 -12 9 -9 5 3 6 10 3 15 -9 13 -12 11 -12 -6z"/>
<path d="M1800 770 c-9 -6 -10 -10 -3 -10 6 0 15 5 18 10 8 12 4 12 -15 0z"/>
<path d="M3456 727 c3 -10 9 -15 12 -12 3 3 0 11 -7 18 -10 9 -11 8 -5 -6z"/>
<path d="M3428 703 c7 -3 16 -2 19 1 4 3 -2 6 -13 5 -11 0 -14 -3 -6 -6z"/>
<path d="M1827 679 c7 -7 15 -10 18 -7 3 3 -2 9 -12 12 -14 6 -15 5 -6 -5z"/>
<path d="M3413 645 c0 -8 4 -12 9 -9 5 3 6 10 3 15 -9 13 -12 11 -12 -6z"/>
<path d="M1893 607 c0 -8 6 -14 14 -14 9 0 10 4 2 14 -6 7 -12 13 -14 13 -1 0
-2 -6 -2 -13z"/>
<path d="M1293 595 c0 -8 4 -12 9 -9 5 3 6 10 3 15 -9 13 -12 11 -12 -6z"/>
<path d="M1908 573 c6 -2 10 -9 7 -13 -3 -5 0 -12 6 -16 8 -4 9 -3 5 4 -4 7
-1 12 6 12 9 0 9 3 -2 10 -8 5 -19 9 -25 9 -5 0 -4 -3 3 -6z"/>
<path d="M1940 542 c0 -6 9 -12 20 -15 11 -3 20 -3 20 -1 0 2 -9 8 -20 14 -11
6 -20 7 -20 2z"/>
<path d="M3267 492 c-12 -13 -13 -21 -6 -32 9 -13 10 -12 5 2 -3 11 2 21 12
27 9 5 14 12 11 15 -3 4 -13 -2 -22 -12z"/>
<path d="M1946 482 c-3 -5 1 -9 9 -9 8 0 12 4 9 9 -3 4 -7 8 -9 8 -2 0 -6 -4
-9 -8z"/>
<path d="M1990 460 c0 -5 5 -10 11 -10 5 0 7 5 4 10 -3 6 -8 10 -11 10 -2 0
-4 -4 -4 -10z"/>
<path d="M5015 460 c-3 -5 -1 -10 4 -10 6 0 11 5 11 10 0 6 -2 10 -4 10 -3 0
-8 -4 -11 -10z"/>
<path d="M3206 417 c3 -10 9 -15 12 -12 3 3 0 11 -7 18 -10 9 -11 8 -5 -6z"/>
<path d="M786 378 c3 -5 10 -6 15 -3 13 9 11 12 -6 12 -8 0 -12 -4 -9 -9z"/>
<path d="M797 347 c-3 -8 1 -14 8 -14 7 0 11 6 8 14 -3 7 -6 13 -8 13 -2 0 -5
-6 -8 -13z"/>
<path d="M2113 345 c0 -8 4 -12 9 -9 5 3 6 10 3 15 -9 13 -12 11 -12 -6z"/>
<path d="M2145 349 c-4 -6 -4 -13 -1 -16 3 -4 6 -1 6 6 0 7 5 9 12 5 7 -4 8
-3 4 4 -9 15 -13 15 -21 1z"/>
<path d="M2160 322 c0 -5 7 -9 15 -9 8 0 12 4 9 9 -3 4 -9 8 -15 8 -5 0 -9 -4
-9 -8z"/>
<path d="M3100 319 c0 -5 5 -7 10 -4 6 3 10 8 10 11 0 2 -4 4 -10 4 -5 0 -10
-5 -10 -11z"/>
<path d="M4530 300 c0 -5 5 -10 11 -10 5 0 7 5 4 10 -3 6 -8 10 -11 10 -2 0
-4 -4 -4 -10z"/>
<path d="M1223 270 c-9 -14 -10 -21 -1 -26 6 -4 8 -3 5 3 -8 12 17 36 26 26 4
-3 7 -1 7 5 0 19 -24 14 -37 -8z"/>
<path d="M2251 274 c0 -11 3 -14 6 -6 3 7 2 16 -1 19 -3 4 -6 -2 -5 -13z"/>
<path d="M836 253 c-6 -14 -5 -15 5 -6 7 7 10 15 7 18 -3 3 -9 -2 -12 -12z"/>
<path d="M2990 260 c0 -5 5 -10 11 -10 5 0 7 5 4 10 -3 6 -8 10 -11 10 -2 0
-4 -4 -4 -10z"/>
<path d="M2286 238 c3 -4 9 -8 15 -8 5 0 9 4 9 8 0 5 -7 9 -15 9 -8 0 -12 -4
-9 -9z"/>
<path d="M2340 243 c0 -6 5 -15 10 -18 6 -4 8 -10 5 -15 -3 -5 -1 -11 4 -14
12 -8 8 14 -7 39 -6 11 -12 15 -12 8z"/>
<path d="M4930 235 c0 -8 2 -15 4 -15 2 0 6 7 10 15 3 8 1 15 -4 15 -6 0 -10
-7 -10 -15z"/>
<path d="M1175 229 c-4 -6 -5 -12 -2 -15 2 -3 7 2 10 11 7 17 1 20 -8 4z"/>
<path d="M2895 231 c-3 -6 -10 -9 -14 -7 -4 3 -7 -4 -8 -14 -2 -18 -1 -18 19
2 11 11 17 22 15 24 -3 3 -8 0 -12 -5z"/>
<path d="M4895 220 c6 -10 3 -12 -13 -8 -12 4 -20 2 -16 -3 7 -12 31 -12 39 0
3 5 0 13 -6 17 -8 5 -9 3 -4 -6z"/>
<path d="M920 200 c-6 -11 -8 -20 -6 -20 3 0 10 9 16 20 6 11 8 20 6 20 -3 0
-10 -9 -16 -20z"/>
<path d="M945 199 c-3 -4 2 -6 10 -5 21 3 28 13 10 13 -9 0 -18 -4 -20 -8z"/>
<path d="M1129 197 c6 -8 7 -18 3 -22 -4 -5 -1 -5 6 -1 10 6 10 11 1 22 -6 8
-14 14 -16 14 -3 0 0 -6 6 -13z"/>
<path d="M2765 200 c-3 -5 -1 -10 4 -10 6 0 11 5 11 10 0 6 -2 10 -4 10 -3 0
-8 -4 -11 -10z"/>
<path d="M2790 200 c0 -5 5 -10 10 -10 6 0 10 5 10 10 0 6 -4 10 -10 10 -5 0
-10 -4 -10 -10z"/>
<path d="M4696 195 c-3 -8 -1 -15 4 -15 6 0 10 7 10 15 0 8 -2 15 -4 15 -2 0
-6 -7 -10 -15z"/>
<path d="M1030 191 c0 -5 7 -11 14 -14 10 -4 13 -1 9 9 -6 15 -23 19 -23 5z"/>
<path d="M1077 187 c-3 -8 1 -14 8 -14 7 0 11 6 8 14 -6 16 -10 16 -16 0z"/>
<path d="M2835 189 c-4 -6 -5 -12 -2 -15 2 -3 7 2 10 11 7 17 1 20 -8 4z"/>
<path d="M2753 165 c0 -8 4 -12 9 -9 5 3 6 10 3 15 -9 13 -12 11 -12 -6z"/>
</g>
</svg>
